<?xml version="1.0" standalone="no"?><!DOCTYPE svg PUBLIC "-//W3C//DTD SVG 1.1//EN" "http://www.w3.org/Graphics/SVG/1.1/DTD/svg11.dtd"><svg t="1485461356585" class="icon" style="" viewBox="0 0 1024 1024" version="1.1" xmlns="http://www.w3.org/2000/svg" p-id="1429" xmlns:xlink="http://www.w3.org/1999/xlink" width="200" height="200"><defs><style type="text/css"></style></defs><path d="M512 62.390979c-248.319575 0-449.610044 201.292516-449.610044 449.610044 0 248.319575 201.290469 449.607998 449.610044 449.607998 248.298086 0 449.610044-201.294562 449.610044-449.607998C961.610044 263.682471 760.306272 62.390979 512 62.390979L512 62.390979zM531.082614 281.20352c28.051893-32.702819 75.924203-37.152155 75.924203-37.152155s2.540869 48.378847-25.505907 81.047898c-28.049846 32.704866-75.92932 37.19718-75.92932 37.19718S503.033791 313.823452 531.082614 281.20352L531.082614 281.20352zM711.274556 618.73493c0 0-18.984377 48.591695-39.657208 79.862909-20.676925 31.223119-49.108464 53.844326-76.641541 53.844326-27.583219 0-52.582589-21.735024-79.277578-21.735024-26.733874 0-60.289108 21.735024-88.75851 21.735024-28.433586 0-57.827033-25.329898-91.093694-87.86414-41.4746-78.081333-42.402739-162.136727-22.579251-220.306568 19.834744-58.169841 76.518744-77.782527 110.24794-77.272921 40.834011 0.589424 71.511707 22.579251 86.131683 22.579251 13.771655 0 61.217247-24.319895 95.667873-24.319895 28.640294 0 69.864184 18.727527 93.288686 52.576449-33.511231 18.642592-56.261375 54.609759-56.261375 95.831602 0 46.432519 28.765137 86.046748 69.310575 101.928461C711.399399 617.427144 711.274556 618.73493 711.274556 618.73493L711.274556 618.73493zM711.274556 618.73493" p-id="1430" fill="#8a8a8a"></path></svg>