<?xml version="1.0" standalone="no"?><!DOCTYPE svg PUBLIC "-//W3C//DTD SVG 1.1//EN" "http://www.w3.org/Graphics/SVG/1.1/DTD/svg11.dtd"><svg t="1485461468521" class="icon" style="" viewBox="0 0 1024 1024" version="1.1" xmlns="http://www.w3.org/2000/svg" p-id="4215" xmlns:xlink="http://www.w3.org/1999/xlink" width="200" height="200"><defs><style type="text/css"></style></defs><path d="M1015.153778 480.590869c-0.903758-15.204848-2.532848-30.592-5.42901-47.246222-7.603717-49.780364-22.989576-99.020283-46.343758-145.542465C878.118788 115.285333 704.881778 7.757576 511.908202 7.757576c-119.293414 0-234.786909 42.358949-325.479434 119.294707-32.222384 27.154101-60.461253 57.747394-84.357172 91.055838-37.110949 51.591758-64.263758 110.061899-79.469899 172.876283-9.774545 39.102061-14.661818 79.831919-14.661818 120.923798 0 44.895677 5.79103 88.338101 17.014949 129.975596 13.21503 49.961374 34.032485 96.486141 61.006869 139.205818 43.262707 68.24598 102.459475 125.631354 172.514263 166.542222C333.057293 991.079434 419.768889 1016.242424 512.091798 1016.242424c22.989576 0 45.436121-1.449374 67.701657-4.527838 84.176162-10.859313 161.653657-42.719677 227.002182-89.607758 122.192162-87.614061 203.111434-228.992 209.083475-391.18998 0.182303-5.794909 0.182303-12.132848 0.182303-18.646626C1015.879111 501.228606 1015.699394 490.909737 1015.153778 480.590869L1015.153778 480.590869zM893.869253 393.518545c2.896162-3.436606 12.672-2.351838 21.542788 2.536727 2.353131 1.446788 4.345535 1.808808 5.97204 1.808808 4.345535 15.568162 8.146747 31.679354 10.499879 48.151273 0.54303 2.353131 0.54303 4.345535 0.903758 6.69996-3.075879-7.784727-7.964444-15.207434-13.21503-20.818747l-14.118788-14.482101C896.042667 407.819636 890.971798 397.14004 893.869253 393.518545L893.869253 393.518545zM936.954828 527.658667c-1.992404 59.554909-16.474505 115.852929-40.552727 166.542222-33.126141 69.15103-83.810263 127.981899-146.990545 170.343434-17.918707 12.307394-36.384323 22.988283-55.934707 32.222384l-0.182303 0c-13.21503 6.332768-26.790788 11.765657-40.547556 16.652929-19.007354 6.701253-38.557737 12.12897-58.833455 15.928889-6.697374 1.449374-13.21503 2.536727-19.913697 3.440485-20.456727 3.078465-41.090586 4.52396-62.271354 4.52396-89.606465 0-172.877576-27.694545-241.485576-75.124364-55.030949-38.014707-100.829091-89.063434-133.051475-148.076606-9.413818-17.560566-17.921293-35.662869-24.437657-54.670222l-0.363313 0c-17.014949-46.161455-26.247758-95.578505-26.247758-147.532283 0-22.990869 2.534141-45.618424 5.973333-67.704242 0.54303 2.354424 0.906343 4.889859 1.450667 6.88097l15.566869 49.056323c3.982222 12.669414 18.10101 24.802263 31.498343 26.789495l72.588929 11.225212c12.49099 1.631677 25.345293 12.30998 30.231273 24.257939 0.54303 0.72404 0.905051 1.991111 1.086061 2.896162l6.697374 22.266828c3.983515 12.670707-1.446788 29.689535-12.30998 37.47297l-15.204848 11.223919c-10.680889 7.783434-22.085818 24.799677-25.345293 37.651394l-11.222626 45.256404c-3.078465 13.030141 3.801212 28.781899 15.206141 35.118545 11.766949 6.332768 32.221091 13.216323 45.255111 15.566869l0.54303 0c13.035313 2.353131 28.781899 12.12897 35.119838 21.179475 0.54303 0.905051 1.446788 2.173414 1.991111 3.259475 6.335354 9.774545 15.023838 24.799677 20.274424 35.662869l22.808566 44.893091c5.793616 12.126384 20.818747 21.903515 33.128727 21.903515 12.127677 0 20.455434-10.864485 18.465616-24.257939l-10.680889-67.882667c-1.991111-13.216323 1.992404-33.490747 8.870788-44.898263l11.766949-19.547798c7.240404-11.587232 12.127677-31.678061 11.584646-45.256404l-1.629091-31.678061c-0.903758-13.21503-11.584646-28.421172-23.894626-33.671758l-45.074101-18.826343c-12.30998-5.251879-25.88703-19.912404-30.050263-32.58699l-11.223919-34.572929c-2.532848-8.146747-5.248-19.911111-6.334061-30.594586-1.086061-5.97204-1.810101-12.127677-1.810101-16.652929l0-1.086061c-0.183596-13.213737 6.877091-32.585697 15.747879-42.358949l5.793616-6.335354c3.799919-4.344242 8.146747-6.335354 11.766949-6.698667 5.06699-0.36202 9.774545 3.077172 12.49099 9.774545 4.525253 11.585939 12.670707 19.008646 18.102303 16.474505 5.792323-2.534141 12.850424-15.023838 16.109899-27.154101 3.077172-12.308687 15.206141-27.876848 26.790788-34.575515l3.078465-1.810101c11.585939-6.697374 23.533899-22.809859 26.971798-35.660283l20.456727-75.85099c3.437899-13.03402-1.993697-30.77301-12.12897-39.461495l-12.851717-10.861899c-10.136566-8.689778-25.88703-23.714909-35.480566-33.127434l-3.440485-3.439192c-0.541737-0.54303-1.084768-1.086061-1.991111-1.629091-9.774545-8.689778-27.151515-15.568162-39.462788-15.568162l-73.133253 0c-5.792323 0-14.480808-0.182303-23.351596 0 27.878141-23.533899 58.833455-43.446303 91.959596-59.376485 0.363313-0.360727 0.54303-0.360727 0.906343-0.360727 55.39297-26.249051 116.940283-40.913455 181.748364-40.913455 142.281697 0 268.456081 70.418101 345.390545 177.764848l-92.502626-12.30998c-7.783434-1.084768-17.375677 0.906343-25.704727 4.889859-5.792323 2.534141-10.679596 5.974626-14.121374 10.317576l-82.726788 99.925333-1.446788 1.446788c-8.327758 10.317576-16.113778 29.688242-17.017535 42.903273l-2.353131 34.032485c-0.725333 13.21503 6.335354 16.835232 16.113778 7.784727l13.758061-13.03402c9.775838-8.870788 28.780606-16.471919 41.996929-16.471919l9.773253 0c13.578343 0 26.971798 10.679596 30.232566 23.712323l2.896162 11.223919c3.078465 13.03402 1.989818 30.774303-2.353131 40.005818-4.525253 8.870788-19.007354 15.569455-32.585697 14.121374l-35.476687-3.078465c-13.217616-1.446788-31.499636 5.42901-40.550141 15.566869l-11.768242 13.03402c-1.989818 2.173414-3.982222 5.250586-5.792323 8.327758-5.792323 9.955556-8.868202 23.53002-7.421414 33.667879l4.88598 33.309737c0.363313 3.078465 1.45196 6.701253 2.898747 10.137859 3.982222 10.860606 11.765657 22.447838 19.908525 28.422465l16.837818 12.125091c10.679596 7.968323 19.368081 25.344 19.368081 38.922343l-1.086061 78.020525c-0.360727 11.584646 6.335354 24.799677 15.025131 31.495758 1.446788 1.086061 2.896162 1.99499 4.342949 2.898747 10.863192 5.42901 27.154101 1.629091 36.022303-8.327758l16.113778-17.92c8.868202-10.137859 20.093414-28.603475 24.979394-40.910869 0 0 10.499879-27.154101 10.499879-32.585697 0-5.251879 8.870788-9.593535 8.870788-9.593535 12.12897-5.431596 25.885737-17.560566 30.593293-26.790788 3.439192-7.241697 8.325172-17.560566 11.765657-26.249051 1.088646-2.354424 1.989818-4.527838 2.532848-6.697374 3.078465-8.691071 14.482101-22.812444 25.164283-30.776889l1.629091-1.449374c10.682182-8.327758 24.80097-24.435071 32.040081-36.023596l9.596121-15.928889c1.989818-3.077172 2.896162-6.332768 3.078465-8.688485 0-1.086061-0.182303-2.353131-0.545616-3.799919-1.629091-3.803798-6.332768-5.250586-13.936485-3.803798l-1.631677 0.545616c-13.032727 2.532848-32.765414-1.449374-43.805737-9.234101l-10.499879-7.241697c-10.860606-7.602424-18.10101-18.10101-16.111192-23.350303 2.353131-5.250586 13.936485-3.983515 25.341414 2.532848l8.692364 4.887273c11.583354 6.69996 32.040081 11.223919 45.255111 10.318869l1.989818-0.363313 8.870788-0.541737c13.21503-1.087354 27.336404-7.78602 31.136323-15.026424 2.896162-5.430303 5.250586-13.21503 6.335354-19.368081 0.54303 7.240404 0.722747 14.301091 0.722747 21.903515C937.133253 517.157495 937.133253 522.408081 936.954828 527.658667L936.954828 527.658667M936.954828 527.658667" p-id="4216" fill="#66cc99"></path></svg>